<svg xmlns="http://www.w3.org/2000/svg" viewBox="0 0 24 24"><path d="M12.017 0C8.396 0 7.992.014 6.76.064c-1.233.05-2.083.265-2.823.567a5.502 5.502 0 00-2.02 1.318A5.502 5.502 0 00.567 3.957C.265 4.697.05 5.547.064 6.78c.014 1.232.028 1.636.064 4.257.036 2.621.05 3.025.064 4.257.05 1.233.265 2.083.567 2.823a5.502 5.502 0 001.318 2.02 5.502 5.502 0 002.02 1.318c.74.302 1.59.517 2.823.567 1.232.05 1.636.064 4.257.064s3.025-.014 4.257-.064c1.233-.05 2.083-.265 2.823-.567a5.502 5.502 0 002.02-1.318 5.502 5.502 0 001.318-2.02c.302-.74.517-1.59.567-2.823.05-1.232.064-1.636.064-4.257s-.014-3.025-.064-4.257c-.05-1.233-.265-2.083-.567-2.823a5.502 5.502 0 00-1.318-2.02A5.502 5.502 0 0017.243.567C16.503.265 15.653.05 14.42.064 13.188.028 12.784.014 9.163.014S6.138.028 4.906.064C3.673.05 2.823.265 2.083.567A5.502 5.502 0 00.567 1.885 5.502 5.502 0 00-.567 3.957C-.865 4.697-1.08 5.547-1.064 6.78c-.014 1.232-.028 1.636-.064 4.257C-1.08 12.658-1.065 13.062-.567 14.295c.302.74.517 1.59.567 2.823a5.502 5.502 0 001.318 2.02 5.502 5.502 0 002.02 1.318c.74.302 1.59.517 2.823.567 1.232.05 1.636.064 4.257.064s3.025-.014 4.257-.064c1.233-.05 2.083-.265 2.823-.567a5.502 5.502 0 002.02-1.318 5.502 5.502 0 001.318-2.02c.302-.74.517-1.59.567-2.823.05-1.232.064-1.636.064-4.257s.014-3.025.064-4.257c.05-1.233.265-2.083.567-2.823a5.502 5.502 0 001.318-2.02 5.502 5.502 0 002.02-1.318c.74-.302 1.59-.517 2.823-.567 1.232-.05 1.636-.064 4.257-.064s3.025.014 4.257.064c1.233.05 2.083.265 2.823.567a5.502 5.502 0 002.02 1.318 5.502 5.502 0 001.318 2.02c.302.74.517 1.59.567 2.823.05 1.232.064 1.636.064 4.257s-.014 3.025-.064 4.257c-.05 1.233-.265 2.083-.567 2.823a5.502 5.502 0 00-1.318 2.02 5.502 5.502 0 00-2.02 1.318c-.74.302-1.59.517-2.823.567-1.232.05-1.636.064-4.257.064s-3.025-.014-4.257-.064c-1.233-.05-2.083-.265-2.823-.567a5.502 5.502 0 00-2.02-1.318 5.502 5.502 0 00-1.318-2.02c-.302-.74-.517-1.59-.567-2.823-.05-1.232-.064-1.636-.064-4.257s.014-3.025.064-4.257c.05-1.233.265-2.083.567-2.823a5.502 5.502 0 001.318-2.02 5.502 5.502 0 002.02-1.318c.74-.302 1.59-.517 2.823-.567 1.232-.05 1.636-.064 4.257-.064s3.025.014 4.257.064c1.233.05 2.083.265 2.823.567a5.502 5.502 0 002.02 1.318 5.502 5.502 0 001.318 2.02c.302.74.517 1.59.567 2.823.05 1.232.064 1.636.064 4.257zM12.017 5.838a6.182 6.182 0 100 12.364 6.182 6.182 0 000-12.364zm0 10.182a4 4 0 110-8 4 4 0 010 8zm6.406-11.845a1.44 1.44 0 11-2.88 0 1.44 1.44 0 012.88 0z"/></svg>