<svg xmlns="http://www.w3.org/2000/svg" viewBox="0 0 24 24" width="24" height="24">
  <path fill="#FF5500" d="M7 17.939h-.411c-.938 0-1.696-.757-1.696-1.696V7.757c0-.939.758-1.697 1.697-1.697h.411v11.879zm2.823 0V6.06c0-.939.758-1.697 1.697-1.697h.411v13.573h-.411c-.939 0-1.697-.757-1.697-1.697zm2.823 0V4.697c0-.939.758-1.697 1.697-1.697h.411v14.939h-.411c-.939 0-1.697-.757-1.697-1.697zm2.823 0V2.333c0-.939.758-1.697 1.697-1.697h.411v17.303h-.411c-.939 0-1.697-.757-1.697-1.697zm2.823 0V.97c0-.939.758-1.697 1.697-1.697h.411v18.666h-.411c-.939 0-1.697-.757-1.697-1.697z"/>
</svg>